<svg width="189" height="48" viewBox="0 0 189 48" fill="none" xmlns="http://www.w3.org/2000/svg">
<path d="M37.2606 42L24.0416 37.35L15.0446 40.9C14.475 41.2 13.9137 41.1833 13.3608 40.85C12.8079 40.5167 12.5315 40.0167 12.5315 39.35V11.45C12.5315 11.0167 12.6572 10.6333 12.9085 10.3C13.1598 9.96667 13.4865 9.71667 13.8886 9.55L24.0416 6L37.2606 10.6L46.2074 7.05C46.777 6.78333 47.3383 6.80833 47.8911 7.125C48.444 7.44167 48.7205 7.93333 48.7205 8.6V36.85C48.7205 37.2167 48.5948 37.5333 48.3435 37.8C48.0922 38.0667 47.7822 38.2667 47.4137 38.4L37.2606 42ZM35.5517 38.25V13L25.7003 9.7V34.95L35.5517 38.25Z" fill="#A0C82E"/>
<path d="M65.676 31.4636C63.94 31.4636 62.672 31.0636 61.872 30.2636C61.072 29.4636 60.672 28.1956 60.672 26.4596V20.9996C60.672 19.2476 61.068 17.9756 61.86 17.1836C62.66 16.3916 63.924 15.9956 65.652 15.9956H68.556C70.028 15.9956 71.124 16.3036 71.844 16.9196C72.564 17.5276 72.96 18.5076 73.032 19.8596C73.056 20.0756 73.012 20.2396 72.9 20.3516C72.796 20.4636 72.64 20.5196 72.432 20.5196C72.032 20.5196 71.812 20.3076 71.772 19.8836C71.716 18.8916 71.444 18.2076 70.956 17.8316C70.468 17.4476 69.668 17.2556 68.556 17.2556H65.652C64.732 17.2556 64 17.3756 63.456 17.6156C62.912 17.8476 62.52 18.2396 62.28 18.7916C62.048 19.3356 61.932 20.0716 61.932 20.9996V26.4596C61.932 27.3876 62.052 28.1236 62.292 28.6676C62.532 29.2116 62.924 29.6036 63.468 29.8436C64.012 30.0836 64.748 30.2036 65.676 30.2036H68.556C69.372 30.2036 70.016 30.1036 70.488 29.9036C70.968 29.7036 71.308 29.3676 71.508 28.8956C71.708 28.4236 71.808 27.7716 71.808 26.9396V25.4396L69.18 25.4156C68.764 25.4156 68.556 25.2036 68.556 24.7796C68.556 24.3636 68.764 24.1556 69.18 24.1556L72.444 24.1796C72.86 24.1796 73.068 24.3876 73.068 24.8036V26.9396C73.068 28.5236 72.712 29.6756 72 30.3956C71.288 31.1076 70.14 31.4636 68.556 31.4636H65.676ZM77.6163 31.4636C77.1923 31.4636 76.9803 31.2516 76.9803 30.8276V20.7476C76.9803 20.3316 77.1923 20.1236 77.6163 20.1236C78.0323 20.1236 78.2403 20.3316 78.2403 20.7476V22.5956C78.6563 21.7956 79.2563 21.1836 80.0403 20.7596C80.8323 20.3356 81.7683 20.1236 82.8483 20.1236C83.2723 20.1236 83.4843 20.3316 83.4843 20.7476C83.4843 21.1716 83.2723 21.3836 82.8483 21.3836C81.4243 21.3836 80.3203 21.7076 79.5363 22.3556C78.7523 22.9956 78.3203 23.9116 78.2403 25.1036V30.8276C78.2403 31.2516 78.0323 31.4636 77.6163 31.4636ZM86.4945 26.2796V27.1556C86.4945 28.2836 86.7185 29.0756 87.1665 29.5316C87.6225 29.9796 88.4225 30.2036 89.5665 30.2036H91.5345C92.5425 30.2036 93.2745 30.0756 93.7305 29.8196C94.1945 29.5556 94.4705 29.1036 94.5585 28.4636C94.5905 28.2636 94.6545 28.1116 94.7505 28.0076C94.8545 27.9036 95.0105 27.8516 95.2185 27.8516C95.4265 27.8516 95.5825 27.9116 95.6865 28.0316C95.7985 28.1436 95.8425 28.3036 95.8185 28.5116C95.7145 29.5196 95.3105 30.2636 94.6065 30.7436C93.9025 31.2236 92.8785 31.4636 91.5345 31.4636H89.5665C88.0705 31.4636 86.9745 31.1196 86.2785 30.4316C85.5825 29.7356 85.2345 28.6436 85.2345 27.1556V24.4436C85.2345 22.9316 85.5825 21.8316 86.2785 21.1436C86.9745 20.4476 88.0705 20.1076 89.5665 20.1236H91.5345C93.0305 20.1236 94.1225 20.4716 94.8105 21.1676C95.5065 21.8556 95.8545 22.9476 95.8545 24.4436V25.6436C95.8545 26.0676 95.6465 26.2796 95.2305 26.2796H86.4945ZM89.5665 21.3836C88.4225 21.3676 87.6225 21.5876 87.1665 22.0436C86.7185 22.4916 86.4945 23.2916 86.4945 24.4436V25.0196H94.5945V24.4436C94.5945 23.2996 94.3705 22.5036 93.9225 22.0556C93.4745 21.6076 92.6785 21.3836 91.5345 21.3836H89.5665ZM100.955 26.2796V27.1556C100.955 28.2836 101.179 29.0756 101.627 29.5316C102.083 29.9796 102.883 30.2036 104.027 30.2036H105.995C107.003 30.2036 107.735 30.0756 108.191 29.8196C108.655 29.5556 108.931 29.1036 109.019 28.4636C109.051 28.2636 109.115 28.1116 109.211 28.0076C109.315 27.9036 109.471 27.8516 109.679 27.8516C109.887 27.8516 110.043 27.9116 110.147 28.0316C110.259 28.1436 110.303 28.3036 110.279 28.5116C110.175 29.5196 109.771 30.2636 109.067 30.7436C108.363 31.2236 107.339 31.4636 105.995 31.4636H104.027C102.531 31.4636 101.435 31.1196 100.739 30.4316C100.043 29.7356 99.6954 28.6436 99.6954 27.1556V24.4436C99.6954 22.9316 100.043 21.8316 100.739 21.1436C101.435 20.4476 102.531 20.1076 104.027 20.1236H105.995C107.491 20.1236 108.583 20.4716 109.271 21.1676C109.967 21.8556 110.315 22.9476 110.315 24.4436V25.6436C110.315 26.0676 110.107 26.2796 109.691 26.2796H100.955ZM104.027 21.3836C102.883 21.3676 102.083 21.5876 101.627 22.0436C101.179 22.4916 100.955 23.2916 100.955 24.4436V25.0196H109.055V24.4436C109.055 23.2996 108.831 22.5036 108.383 22.0556C107.935 21.6076 107.139 21.3836 105.995 21.3836H104.027ZM115.116 31.4636C114.692 31.4636 114.48 31.2516 114.48 30.8276V20.7476C114.48 20.3316 114.692 20.1236 115.116 20.1236C115.532 20.1236 115.74 20.3316 115.74 20.7476V21.8996C116.5 20.7156 117.876 20.1236 119.868 20.1236H120.54C122.036 20.1236 123.128 20.4716 123.816 21.1676C124.512 21.8556 124.86 22.9476 124.86 24.4436V30.8276C124.86 31.2516 124.652 31.4636 124.236 31.4636C123.812 31.4636 123.6 31.2516 123.6 30.8276V24.4436C123.6 23.2996 123.372 22.5036 122.916 22.0556C122.468 21.6076 121.676 21.3836 120.54 21.3836H119.868C118.628 21.3836 117.652 21.5796 116.94 21.9716C116.228 22.3636 115.828 22.9756 115.74 23.8076V30.8276C115.74 31.2516 115.532 31.4636 115.116 31.4636ZM135.788 31.4636C135.364 31.4636 135.152 31.2516 135.152 30.8276V16.6316C135.152 16.2076 135.364 15.9956 135.788 15.9956C136.204 15.9956 136.412 16.2076 136.412 16.6316V30.2036H143.708C144.132 30.2036 144.344 30.4116 144.344 30.8276C144.344 31.2516 144.132 31.4636 143.708 31.4636H135.788ZM147.512 17.9396C146.96 17.9396 146.684 17.6556 146.684 17.0876V16.5476C146.684 15.9956 146.96 15.7196 147.512 15.7196H148.052C148.588 15.7196 148.856 15.9956 148.856 16.5476V17.0876C148.856 17.6556 148.588 17.9396 148.052 17.9396H147.512ZM147.788 31.4636C147.364 31.4636 147.152 31.2516 147.152 30.8276V20.7476C147.152 20.3316 147.364 20.1236 147.788 20.1236C148.204 20.1236 148.412 20.3316 148.412 20.7476V30.8276C148.412 31.2516 148.204 31.4636 147.788 31.4636ZM153.53 31.4636C153.106 31.4636 152.894 31.2516 152.894 30.8276V20.7476C152.894 20.3316 153.106 20.1236 153.53 20.1236C153.946 20.1236 154.154 20.3316 154.154 20.7476V21.8996C154.914 20.7156 156.29 20.1236 158.282 20.1236H158.954C160.45 20.1236 161.542 20.4716 162.23 21.1676C162.926 21.8556 163.274 22.9476 163.274 24.4436V30.8276C163.274 31.2516 163.066 31.4636 162.65 31.4636C162.226 31.4636 162.014 31.2516 162.014 30.8276V24.4436C162.014 23.2996 161.786 22.5036 161.33 22.0556C160.882 21.6076 160.09 21.3836 158.954 21.3836H158.282C157.042 21.3836 156.066 21.5796 155.354 21.9716C154.642 22.3636 154.242 22.9756 154.154 23.8076V30.8276C154.154 31.2516 153.946 31.4636 153.53 31.4636ZM168.479 26.2796V27.1556C168.479 28.2836 168.703 29.0756 169.151 29.5316C169.607 29.9796 170.407 30.2036 171.551 30.2036H173.519C174.527 30.2036 175.259 30.0756 175.715 29.8196C176.179 29.5556 176.455 29.1036 176.543 28.4636C176.575 28.2636 176.639 28.1116 176.735 28.0076C176.839 27.9036 176.995 27.8516 177.203 27.8516C177.411 27.8516 177.567 27.9116 177.671 28.0316C177.783 28.1436 177.827 28.3036 177.803 28.5116C177.699 29.5196 177.295 30.2636 176.591 30.7436C175.887 31.2236 174.863 31.4636 173.519 31.4636H171.551C170.055 31.4636 168.959 31.1196 168.263 30.4316C167.567 29.7356 167.219 28.6436 167.219 27.1556V24.4436C167.219 22.9316 167.567 21.8316 168.263 21.1436C168.959 20.4476 170.055 20.1076 171.551 20.1236H173.519C175.015 20.1236 176.107 20.4716 176.795 21.1676C177.491 21.8556 177.839 22.9476 177.839 24.4436V25.6436C177.839 26.0676 177.631 26.2796 177.215 26.2796H168.479ZM171.551 21.3836C170.407 21.3676 169.607 21.5876 169.151 22.0436C168.703 22.4916 168.479 23.2916 168.479 24.4436V25.0196H176.579V24.4436C176.579 23.2996 176.355 22.5036 175.907 22.0556C175.459 21.6076 174.663 21.3836 173.519 21.3836H171.551Z" fill="black"/>
<rect x="58.752" y="35.4636" width="121.635" height="2" fill="#A0C82E"/>
<path d="M182.438 36.5623L177.882 39.0445L177.99 33.8932L182.438 36.5623Z" fill="#A0C82E"/>
</svg>
